<?xml version="1.0" standalone="no"?>
<!DOCTYPE svg PUBLIC "-//W3C//DTD SVG 20010904//EN"
 "http://www.w3.org/TR/2001/REC-SVG-20010904/DTD/svg10.dtd">
<svg version="1.0" xmlns="http://www.w3.org/2000/svg"
 width="1217.000000pt" height="767.000000pt" viewBox="0 0 1217.000000 767.000000"
 preserveAspectRatio="xMidYMid meet">

<g transform="translate(0.000000,767.000000) scale(0.100000,-0.100000)"
fill="#000000" stroke="none">
<path d="M8940 6120 c62 -124 86 -182 78 -185 -7 -3 -89 -6 -183 -7 l-170 -3
0 -2200 0 -2200 1473 -3 1472 -2 0 1562 0 1563 178 89 c97 49 180 94 184 100
4 6 6 337 5 736 l-2 725 -1563 3 -1562 2 90 -180z m2650 -2395 l0 -2185 -1455
0 -1455 0 0 2185 0 2185 1455 0 1455 0 0 -2185z"/>
<path d="M570 3725 l0 -2205 92 -185 93 -185 1282 0 c858 0 1283 3 1283 10 0
6 -38 87 -85 180 -47 93 -85 172 -85 175 0 3 81 5 180 5 l180 0 0 2205 0 2205
-1470 0 -1470 0 0 -2205z m2920 0 l0 -2185 -1450 0 -1450 0 0 2185 0 2185
1450 0 1450 0 0 -2185z"/>
<path d="M4620 5750 c0 -99 -2 -180 -5 -180 -3 0 -82 38 -176 85 -94 47 -175
85 -180 85 -5 0 -9 -812 -9 -2015 0 -1108 2 -2015 5 -2015 3 0 82 38 175 85
93 47 174 85 180 85 6 0 10 -65 10 -180 l0 -180 1470 0 1470 0 0 186 c0 102 3
184 8 182 4 -1 84 -42 179 -91 94 -48 174 -87 177 -87 3 0 6 907 6 2015 0
1299 -3 2015 -10 2015 -5 0 -85 -36 -176 -80 -92 -44 -171 -80 -176 -80 -4 0
-8 79 -8 175 l0 175 -1470 0 -1470 0 0 -180z m2920 -2025 l0 -2185 -1450 0
-1450 0 0 2185 0 2185 1450 0 1450 0 0 -2185z"/>
</g>
</svg>
